<mxfile host="app.diagrams.net" modified="2023-07-11T19:17:44.287Z" agent="Mozilla/5.0 (Windows NT 10.0; Win64; x64; rv:109.0) Gecko/20100101 Firefox/114.0" etag="K0vBONghWFgGvTdZFn2A" version="21.6.1" type="github">
  <diagram name="Page-1" id="e7e014a7-5840-1c2e-5031-d8a46d1fe8dd">
    <mxGraphModel dx="1050" dy="1356" grid="1" gridSize="10" guides="1" tooltips="1" connect="1" arrows="1" fold="1" page="1" pageScale="1" pageWidth="1169" pageHeight="826" background="none" math="0" shadow="0">
      <root>
        <mxCell id="0" />
        <mxCell id="1" parent="0" />
        <mxCell id="Zjy-Knsu24XSyEbBo_rx-99" value="" style="rounded=0;whiteSpace=wrap;html=1;" parent="1" vertex="1">
          <mxGeometry x="310" y="-620" width="470" height="410" as="geometry" />
        </mxCell>
        <mxCell id="Zjy-Knsu24XSyEbBo_rx-41" value="User" style="shape=umlActor;verticalLabelPosition=bottom;verticalAlign=top;html=1;outlineConnect=0;fillColor=#1ba1e2;fontColor=#ffffff;strokeColor=#006EAF;" parent="1" vertex="1">
          <mxGeometry x="190" y="-590" width="30" height="60" as="geometry" />
        </mxCell>
        <mxCell id="Zjy-Knsu24XSyEbBo_rx-44" value="&lt;div&gt;Manage Users&lt;/div&gt;&lt;div&gt;Manage Surveys&lt;br&gt;&lt;/div&gt;" style="ellipse;whiteSpace=wrap;html=1;" parent="1" vertex="1">
          <mxGeometry x="380" y="-600" width="120" height="80" as="geometry" />
        </mxCell>
        <mxCell id="Zjy-Knsu24XSyEbBo_rx-48" value="Tennant" style="shape=umlActor;verticalLabelPosition=bottom;verticalAlign=top;html=1;outlineConnect=0;fillColor=#008a00;fontColor=#ffffff;strokeColor=#005700;" parent="1" vertex="1">
          <mxGeometry x="900" y="-580" width="30" height="60" as="geometry" />
        </mxCell>
        <mxCell id="Zjy-Knsu24XSyEbBo_rx-75" value="&amp;lt;&amp;lt;include&amp;gt;&amp;gt;" style="endArrow=open;endSize=12;dashed=1;html=1;rounded=0;fillColor=#1ba1e2;strokeColor=#006EAF;exitX=0.5;exitY=1;exitDx=0;exitDy=0;strokeWidth=2;entryX=0.5;entryY=0;entryDx=0;entryDy=0;" parent="1" source="Zjy-Knsu24XSyEbBo_rx-44" edge="1" target="Zjy-Knsu24XSyEbBo_rx-82">
          <mxGeometry x="-0.2" y="-30" width="160" relative="1" as="geometry">
            <mxPoint x="480" y="-518.01" as="sourcePoint" />
            <mxPoint x="482.91792139963286" y="-461.98590912704617" as="targetPoint" />
            <Array as="points" />
            <mxPoint as="offset" />
          </mxGeometry>
        </mxCell>
        <mxCell id="Zjy-Knsu24XSyEbBo_rx-82" value="&lt;div&gt;Survey:&lt;br&gt;&lt;/div&gt;&lt;div&gt;Create-Update-Delete-view results&lt;br&gt;&lt;/div&gt;" style="ellipse;whiteSpace=wrap;html=1;" parent="1" vertex="1">
          <mxGeometry x="380" y="-470" width="120" height="80" as="geometry" />
        </mxCell>
        <mxCell id="Zjy-Knsu24XSyEbBo_rx-83" value="Authenticate" style="ellipse;whiteSpace=wrap;html=1;" parent="1" vertex="1">
          <mxGeometry x="380" y="-330" width="120" height="80" as="geometry" />
        </mxCell>
        <mxCell id="Zjy-Knsu24XSyEbBo_rx-86" value="&amp;lt;&amp;lt;Extends&amp;gt;&amp;gt;" style="endArrow=open;endSize=12;dashed=1;html=1;rounded=0;entryX=0.633;entryY=1;entryDx=0;entryDy=0;entryPerimeter=0;fillColor=#008a00;strokeColor=#005700;exitX=0.5;exitY=0;exitDx=0;exitDy=0;strokeWidth=3;" parent="1" source="Zjy-Knsu24XSyEbBo_rx-83" edge="1">
          <mxGeometry y="-30" width="160" relative="1" as="geometry">
            <mxPoint x="454.0799999999999" y="-338.96000000000004" as="sourcePoint" />
            <mxPoint x="440" y="-390" as="targetPoint" />
            <Array as="points" />
            <mxPoint as="offset" />
          </mxGeometry>
        </mxCell>
        <mxCell id="Zjy-Knsu24XSyEbBo_rx-101" value="" style="endArrow=none;html=1;rounded=0;fillColor=#1ba1e2;strokeColor=#006EAF;strokeWidth=2;" parent="1" target="Zjy-Knsu24XSyEbBo_rx-44" edge="1">
          <mxGeometry width="50" height="50" relative="1" as="geometry">
            <mxPoint x="240" y="-560" as="sourcePoint" />
            <mxPoint x="290" y="-610" as="targetPoint" />
          </mxGeometry>
        </mxCell>
        <mxCell id="Zjy-Knsu24XSyEbBo_rx-102" value="" style="endArrow=none;html=1;rounded=0;fillColor=#008a00;strokeColor=#005700;strokeWidth=2;" parent="1" edge="1">
          <mxGeometry width="50" height="50" relative="1" as="geometry">
            <mxPoint x="700" y="-560" as="sourcePoint" />
            <mxPoint x="880" y="-560" as="targetPoint" />
          </mxGeometry>
        </mxCell>
        <mxCell id="iZEF6TkMlwygOp0ytVJz-1" value="&lt;div&gt;Take Survey&lt;/div&gt;&lt;div&gt;View Survey Results&lt;br&gt;&lt;/div&gt;" style="ellipse;whiteSpace=wrap;html=1;" vertex="1" parent="1">
          <mxGeometry x="585" y="-600" width="120" height="80" as="geometry" />
        </mxCell>
        <mxCell id="iZEF6TkMlwygOp0ytVJz-2" value="Authenticate" style="ellipse;whiteSpace=wrap;html=1;" vertex="1" parent="1">
          <mxGeometry x="590" y="-470" width="120" height="80" as="geometry" />
        </mxCell>
        <mxCell id="iZEF6TkMlwygOp0ytVJz-3" value="" style="endArrow=classic;startArrow=classic;html=1;rounded=0;exitX=0.5;exitY=0;exitDx=0;exitDy=0;dashed=1;strokeWidth=2;fillColor=#008a00;strokeColor=#005700;" edge="1" parent="1" source="iZEF6TkMlwygOp0ytVJz-2">
          <mxGeometry width="50" height="50" relative="1" as="geometry">
            <mxPoint x="600" y="-470" as="sourcePoint" />
            <mxPoint x="650" y="-520" as="targetPoint" />
          </mxGeometry>
        </mxCell>
        <mxCell id="iZEF6TkMlwygOp0ytVJz-4" value="Admin" style="text;html=1;strokeColor=none;fillColor=none;align=center;verticalAlign=middle;whiteSpace=wrap;rounded=0;" vertex="1" parent="1">
          <mxGeometry x="175" y="-520" width="60" height="30" as="geometry" />
        </mxCell>
        <mxCell id="iZEF6TkMlwygOp0ytVJz-5" value="User" style="text;html=1;strokeColor=none;fillColor=none;align=center;verticalAlign=middle;whiteSpace=wrap;rounded=0;" vertex="1" parent="1">
          <mxGeometry x="885" y="-520" width="60" height="30" as="geometry" />
        </mxCell>
      </root>
    </mxGraphModel>
  </diagram>
</mxfile>
